<?xml version="1.0" standalone="no"?>
<!DOCTYPE svg PUBLIC "-//W3C//DTD SVG 20010904//EN"
 "http://www.w3.org/TR/2001/REC-SVG-20010904/DTD/svg10.dtd">
<svg version="1.0" xmlns="http://www.w3.org/2000/svg"
 width="1440.000000pt" height="1440.000000pt" viewBox="0 0 1440.000000 1440.000000"
 preserveAspectRatio="xMidYMid meet">
<metadata>
Created by potrace 1.14, written by Peter Selinger 2001-2017
</metadata>
<g transform="translate(0.000000,1440.000000) scale(0.100000,-0.100000)"
fill="#000000" stroke="none">
<path d="M0 7200 l0 -7200 1300 0 1300 0 0 50 0 50 150 0 150 0 0 50 0 50 100
0 100 0 0 50 0 50 100 0 100 0 0 50 0 50 150 0 150 0 0 50 0 50 100 0 100 0 0
50 0 50 100 0 100 0 0 50 0 50 100 0 100 0 0 50 0 50 100 0 100 0 0 50 0 50
50 0 50 0 0 50 0 50 50 0 50 0 0 50 0 50 100 0 100 0 0 50 0 50 50 0 50 0 0
50 0 50 50 0 50 0 0 50 0 50 50 0 50 0 0 50 0 50 50 0 50 0 0 100 0 100 50 0
50 0 0 50 0 50 50 0 50 0 0 50 0 50 50 0 50 0 0 100 0 100 50 0 50 0 0 250 0
250 -50 0 -50 0 0 50 0 50 50 0 50 0 0 50 0 50 -50 0 -50 0 0 50 0 50 100 0
100 0 0 -550 0 -550 -50 0 -50 0 0 -50 0 -50 50 0 50 0 0 -350 0 -350 -50 0
-50 0 0 -50 0 -50 -50 0 -50 0 0 100 0 100 -50 0 -50 0 0 250 0 250 -50 0 -50
0 0 -150 0 -150 -50 0 -50 0 0 -250 0 -250 -50 0 -50 0 0 -150 0 -150 -50 0
-50 0 0 -50 0 -50 -50 0 -50 0 0 -50 0 -50 -50 0 -50 0 0 -50 0 -50 -50 0 -50
0 0 -50 0 -50 -50 0 -50 0 0 -50 0 -50 1900 0 1900 0 0 50 0 50 -50 0 -50 0 0
50 0 50 -50 0 -50 0 0 50 0 50 -50 0 -50 0 0 50 0 50 -100 0 -100 0 0 50 0 50
-100 0 -100 0 0 100 0 100 50 0 50 0 0 50 0 50 -50 0 -50 0 0 50 0 50 50 0 50
0 0 100 0 100 -150 0 -150 0 0 150 0 150 100 0 100 0 0 100 0 100 100 0 100 0
0 -50 0 -50 100 0 100 0 0 100 0 100 50 0 50 0 0 100 0 100 50 0 50 0 0 50 0
50 50 0 50 0 0 50 0 50 50 0 50 0 0 50 0 50 50 0 50 0 0 100 0 100 50 0 50 0
0 50 0 50 50 0 50 0 0 50 0 50 100 0 100 0 0 50 0 50 50 0 50 0 0 -200 0 -200
50 0 50 0 0 -50 0 -50 50 0 50 0 0 -100 0 -100 50 0 50 0 0 -50 0 -50 50 0 50
0 0 -100 0 -100 -50 0 -50 0 0 -100 0 -100 50 0 50 0 0 50 0 50 50 0 50 0 0
-100 0 -100 -50 0 -50 0 0 -50 0 -50 -50 0 -50 0 0 -400 0 -400 -50 0 -50 0 0
-250 0 -250 1350 0 1350 0 0 50 0 50 100 0 100 0 0 -50 0 -50 1100 0 1100 0 0
7200 0 7200 -7200 0 -7200 0 0 -7200z m7300 7000 l0 -100 100 0 100 0 0 -50 0
-50 -100 0 -100 0 0 -50 0 -50 50 0 50 0 0 -200 0 -200 100 0 100 0 0 50 0 50
50 0 50 0 0 50 0 50 50 0 50 0 0 -100 0 -100 50 0 50 0 0 -100 0 -100 -50 0
-50 0 0 -50 0 -50 -100 0 -100 0 0 50 0 50 -100 0 -100 0 0 -300 0 -300 50 0
50 0 0 -50 0 -50 -100 0 -100 0 0 50 0 50 -50 0 -50 0 0 -50 0 -50 -50 0 -50
0 0 50 0 50 50 0 50 0 0 300 0 300 -100 0 -100 0 0 -50 0 -50 -50 0 -50 0 0
-50 0 -50 -100 0 -100 0 0 50 0 50 50 0 50 0 0 50 0 50 -100 0 -100 0 0 100 0
100 50 0 50 0 0 50 0 50 100 0 100 0 0 -50 0 -50 150 0 150 0 0 250 0 250
-100 0 -100 0 0 50 0 50 100 0 100 0 0 100 0 100 50 0 50 0 0 -100z m300
-1750 l0 -50 50 0 50 0 0 -50 0 -50 -50 0 -50 0 0 -50 0 -50 -50 0 -50 0 0
-50 0 -50 -50 0 -50 0 0 -200 0 -200 50 0 50 0 0 50 0 50 250 0 250 0 0 50 0
50 50 0 50 0 0 -50 0 -50 -50 0 -50 0 0 -50 0 -50 -250 0 -250 0 0 -50 0 -50
-50 0 -50 0 0 -150 0 -150 -50 0 -50 0 0 50 0 50 -50 0 -50 0 0 50 0 50 50 0
50 0 0 50 0 50 -50 0 -50 0 0 100 0 100 50 0 50 0 0 50 0 50 -50 0 -50 0 0
100 0 100 50 0 50 0 0 50 0 50 -100 0 -100 0 0 -300 0 -300 -50 0 -50 0 0 -50
0 -50 -50 0 -50 0 0 -200 0 -200 -100 0 -100 0 0 50 0 50 50 0 50 0 0 50 0 50
-200 0 -200 0 0 -50 0 -50 -200 0 -200 0 0 -100 0 -100 50 0 50 0 0 -50 0 -50
-50 0 -50 0 0 50 0 50 -50 0 -50 0 0 150 0 150 -50 0 -50 0 0 100 0 100 50 0
50 0 0 -50 0 -50 100 0 100 0 0 50 0 50 400 0 400 0 0 100 0 100 -150 0 -150
0 0 50 0 50 -50 0 -50 0 0 50 0 50 50 0 50 0 0 -50 0 -50 150 0 150 0 0 300 0
300 50 0 50 0 0 50 0 50 300 0 300 0 0 -50z m800 -100 l0 -50 50 0 50 0 0 50
0 50 150 0 150 0 0 -50 0 -50 50 0 50 0 0 -50 0 -50 50 0 50 0 0 -100 0 -100
50 0 50 0 0 -50 0 -50 200 0 200 0 0 50 0 50 100 0 100 0 0 -50 0 -50 100 0
100 0 0 -50 0 -50 100 0 100 0 0 -100 0 -100 100 0 100 0 0 -50 0 -50 50 0 50
0 0 -50 0 -50 50 0 50 0 0 -50 0 -50 50 0 50 0 0 -50 0 -50 50 0 50 0 0 -50 0
-50 -100 0 -100 0 0 100 0 100 -50 0 -50 0 0 50 0 50 -50 0 -50 0 0 -250 0
-250 50 0 50 0 0 50 0 50 50 0 50 0 0 -50 0 -50 -50 0 -50 0 0 -200 0 -200
-50 0 -50 0 0 -100 0 -100 -50 0 -50 0 0 450 0 450 -50 0 -50 0 0 100 0 100
-50 0 -50 0 0 50 0 50 -50 0 -50 0 0 50 0 50 -50 0 -50 0 0 50 0 50 -100 0
-100 0 0 50 0 50 -250 0 -250 0 0 -50 0 -50 -50 0 -50 0 0 -150 0 -150 50 0
50 0 0 50 0 50 50 0 50 0 0 100 0 100 100 0 100 0 0 -100 0 -100 50 0 50 0 0
50 0 50 50 0 50 0 0 -100 0 -100 50 0 50 0 0 -100 0 -100 50 0 50 0 0 -100 0
-100 50 0 50 0 0 -250 0 -250 -100 0 -100 0 0 -50 0 -50 -50 0 -50 0 0 150 0
150 100 0 100 0 0 100 0 100 -50 0 -50 0 0 150 0 150 -50 0 -50 0 0 50 0 50
-50 0 -50 0 0 50 0 50 -50 0 -50 0 0 50 0 50 -100 0 -100 0 0 -50 0 -50 -50 0
-50 0 0 -50 0 -50 -50 0 -50 0 0 50 0 50 -50 0 -50 0 0 -50 0 -50 -50 0 -50 0
0 50 0 50 50 0 50 0 0 100 0 100 -50 0 -50 0 0 200 0 200 -50 0 -50 0 0 -350
0 -350 -50 0 -50 0 0 -50 0 -50 -50 0 -50 0 0 -50 0 -50 -50 0 -50 0 0 50 0
50 -50 0 -50 0 0 50 0 50 -100 0 -100 0 0 -50 0 -50 -100 0 -100 0 0 50 0 50
-150 0 -150 0 0 50 0 50 -50 0 -50 0 0 50 0 50 100 0 100 0 0 50 0 50 100 0
100 0 0 -50 0 -50 300 0 300 0 0 100 0 100 50 0 50 0 0 100 0 100 -50 0 -50 0
0 50 0 50 -50 0 -50 0 0 100 0 100 -100 0 -100 0 0 -100 0 -100 -50 0 -50 0 0
100 0 100 50 0 50 0 0 50 0 50 50 0 50 0 0 50 0 50 50 0 50 0 0 -50z m-2100
-100 l0 -50 50 0 50 0 0 -50 0 -50 -50 0 -50 0 0 50 0 50 -150 0 -150 0 0
-150 0 -150 -50 0 -50 0 0 -50 0 -50 -100 0 -100 0 0 50 0 50 -50 0 -50 0 0
-100 0 -100 -100 0 -100 0 0 50 0 50 -200 0 -200 0 0 -50 0 -50 -100 0 -100 0
0 -50 0 -50 -50 0 -50 0 0 -50 0 -50 -50 0 -50 0 0 -50 0 -50 -50 0 -50 0 0
-100 0 -100 -50 0 -50 0 0 -300 0 -300 -100 0 -100 0 0 -250 0 -250 50 0 50 0
0 50 0 50 100 0 100 0 0 -50 0 -50 -100 0 -100 0 0 -50 0 -50 -50 0 -50 0 0
-100 0 -100 -100 0 -100 0 0 50 0 50 50 0 50 0 0 550 0 550 50 0 50 0 0 -100
0 -100 50 0 50 0 0 250 0 250 -50 0 -50 0 0 50 0 50 -100 0 -100 0 0 -100 0
-100 -50 0 -50 0 0 -50 0 -50 -50 0 -50 0 0 -100 0 -100 -50 0 -50 0 0 100 0
100 50 0 50 0 0 100 0 100 50 0 50 0 0 50 0 50 50 0 50 0 0 50 0 50 50 0 50 0
0 50 0 50 100 0 100 0 0 50 0 50 50 0 50 0 0 50 0 50 50 0 50 0 0 -50 0 -50
50 0 50 0 0 100 0 100 50 0 50 0 0 -50 0 -50 100 0 100 0 0 50 0 50 250 0 250
0 0 100 0 100 50 0 50 0 0 100 0 100 400 0 400 0 0 -50z m0 -600 l0 -50 -200
0 -200 0 0 50 0 50 200 0 200 0 0 -50z m-1200 -100 l0 -50 150 0 150 0 0 -200
0 -200 -50 0 -50 0 0 -50 0 -50 -50 0 -50 0 0 -50 0 -50 50 0 50 0 0 -50 0
-50 -50 0 -50 0 0 -50 0 -50 -50 0 -50 0 0 50 0 50 -50 0 -50 0 0 -150 0 -150
50 0 50 0 0 -200 0 -200 -50 0 -50 0 0 200 0 200 -100 0 -100 0 0 50 0 50 -50
0 -50 0 0 -100 0 -100 -50 0 -50 0 0 100 0 100 50 0 50 0 0 50 0 50 100 0 100
0 0 100 0 100 50 0 50 0 0 50 0 50 50 0 50 0 0 50 0 50 100 0 100 0 0 150 0
150 -100 0 -100 0 0 50 0 50 -50 0 -50 0 0 50 0 50 50 0 50 0 0 -50z m-200
-100 l0 -50 -50 0 -50 0 0 50 0 50 50 0 50 0 0 -50z m800 0 l0 -50 -50 0 -50
0 0 50 0 50 50 0 50 0 0 -50z m-1000 -200 l0 -50 -50 0 -50 0 0 50 0 50 50 0
50 0 0 -50z m2700 -100 l0 -50 100 0 100 0 0 50 0 50 100 0 100 0 0 -50 0 -50
-100 0 -100 0 0 -50 0 -50 -50 0 -50 0 0 -50 0 -50 -50 0 -50 0 0 -50 0 -50
-50 0 -50 0 0 50 0 50 -50 0 -50 0 0 150 0 150 100 0 100 0 0 -50z m1800 0 l0
-50 50 0 50 0 0 -50 0 -50 -100 0 -100 0 0 100 0 100 50 0 50 0 0 -50z m800 0
l0 -50 -50 0 -50 0 0 50 0 50 50 0 50 0 0 -50z m-1100 -100 l0 -50 50 0 50 0
0 -50 0 -50 -150 0 -150 0 0 100 0 100 100 0 100 0 0 -50z m-3400 -100 l0 -50
-50 0 -50 0 0 50 0 50 50 0 50 0 0 -50z m200 -50 l0 -100 -50 0 -50 0 0 100 0
100 50 0 50 0 0 -100z m2800 50 l0 -50 -50 0 -50 0 0 50 0 50 50 0 50 0 0 -50z
m2300 0 l0 -50 -50 0 -50 0 0 -50 0 -50 50 0 50 0 0 -50 0 -50 -50 0 -50 0 0
-50 0 -50 50 0 50 0 0 -50 0 -50 -100 0 -100 0 0 250 0 250 100 0 100 0 0 -50z
m-4000 -100 l0 -50 -150 0 -150 0 0 50 0 50 150 0 150 0 0 -50z m1000 0 l0
-50 -50 0 -50 0 0 50 0 50 50 0 50 0 0 -50z m-4000 -100 l0 -50 -50 0 -50 0 0
-50 0 -50 -50 0 -50 0 0 50 0 50 50 0 50 0 0 50 0 50 50 0 50 0 0 -50z m5300
0 l0 -50 -50 0 -50 0 0 50 0 50 50 0 50 0 0 -50z m-600 -100 l0 -50 50 0 50 0
0 -50 0 -50 -50 0 -50 0 0 -50 0 -50 -50 0 -50 0 0 -50 0 -50 50 0 50 0 0
-100 0 -100 -50 0 -50 0 0 100 0 100 -50 0 -50 0 0 50 0 50 50 0 50 0 0 50 0
50 50 0 50 0 0 50 0 50 -50 0 -50 0 0 50 0 50 50 0 50 0 0 -50z m-3100 -100
l0 -50 -100 0 -100 0 0 50 0 50 100 0 100 0 0 -50z m800 0 l0 -50 -50 0 -50 0
0 50 0 50 50 0 50 0 0 -50z m2800 0 l0 -50 50 0 50 0 0 50 0 50 100 0 100 0 0
-50 0 -50 -100 0 -100 0 0 -50 0 -50 -50 0 -50 0 0 50 0 50 -50 0 -50 0 0 50
0 50 50 0 50 0 0 -50z m-4600 -100 l0 -50 -50 0 -50 0 0 50 0 50 50 0 50 0 0
-50z m1100 -100 l0 -50 -50 0 -50 0 0 -50 0 -50 50 0 50 0 0 -50 0 -50 50 0
50 0 0 -50 0 -50 -50 0 -50 0 0 50 0 50 -50 0 -50 0 0 50 0 50 -50 0 -50 0 0
100 0 100 100 0 100 0 0 -50z m600 0 l0 -50 -50 0 -50 0 0 50 0 50 50 0 50 0
0 -50z m1100 -50 l0 -100 50 0 50 0 0 100 0 100 50 0 50 0 0 -100 0 -100 50 0
50 0 0 -50 0 -50 -50 0 -50 0 0 50 0 50 -50 0 -50 0 0 -50 0 -50 -100 0 -100
0 0 150 0 150 50 0 50 0 0 -100z m600 50 l0 -50 -50 0 -50 0 0 -50 0 -50 -50
0 -50 0 0 50 0 50 50 0 50 0 0 50 0 50 50 0 50 0 0 -50z m1500 0 l0 -50 -50 0
-50 0 0 50 0 50 50 0 50 0 0 -50z m700 -100 l0 -150 -50 0 -50 0 0 150 0 150
50 0 50 0 0 -150z m-5200 0 l0 -50 -50 0 -50 0 0 -50 0 -50 50 0 50 0 0 -250
0 -250 50 0 50 0 0 150 0 150 50 0 50 0 0 -50 0 -50 50 0 50 0 0 -50 0 -50
100 0 100 0 0 -50 0 -50 -200 0 -200 0 0 -100 0 -100 50 0 50 0 0 50 0 50 200
0 200 0 0 -50 0 -50 -50 0 -50 0 0 -50 0 -50 -50 0 -50 0 0 -100 0 -100 -100
0 -100 0 0 50 0 50 -150 0 -150 0 0 -100 0 -100 -100 0 -100 0 0 -50 0 -50
-100 0 -100 0 0 -150 0 -150 -50 0 -50 0 0 200 0 200 100 0 100 0 0 50 0 50
-50 0 -50 0 0 50 0 50 -50 0 -50 0 0 100 0 100 -50 0 -50 0 0 150 0 150 100 0
100 0 0 -50 0 -50 100 0 100 0 0 100 0 100 -50 0 -50 0 0 50 0 50 50 0 50 0 0
-50 0 -50 50 0 50 0 0 50 0 50 50 0 50 0 0 100 0 100 -50 0 -50 0 0 50 0 50
50 0 50 0 0 50 0 50 50 0 50 0 0 -50z m2100 0 l0 -50 -50 0 -50 0 0 50 0 50
50 0 50 0 0 -50z m2100 0 l0 -50 -50 0 -50 0 0 50 0 50 50 0 50 0 0 -50z m600
-50 l0 -100 -50 0 -50 0 0 -50 0 -50 -50 0 -50 0 0 100 0 100 50 0 50 0 0 50
0 50 50 0 50 0 0 -100z m1100 50 l0 -50 -50 0 -50 0 0 -50 0 -50 -50 0 -50 0
0 -150 0 -150 -200 0 -200 0 0 -50 0 -50 -50 0 -50 0 0 -50 0 -50 -100 0 -100
0 0 50 0 50 50 0 50 0 0 100 0 100 50 0 50 0 0 50 0 50 50 0 50 0 0 100 0 100
100 0 100 0 0 -100 0 -100 -100 0 -100 0 0 -50 0 -50 150 0 150 0 0 100 0 100
50 0 50 0 0 100 0 100 100 0 100 0 0 -50z m-6800 -100 l0 -50 50 0 50 0 0 -50
0 -50 -50 0 -50 0 0 50 0 50 -50 0 -50 0 0 50 0 50 50 0 50 0 0 -50z m4900
-100 l0 -50 50 0 50 0 0 50 0 50 50 0 50 0 0 -50 0 -50 -50 0 -50 0 0 -50 0
-50 -50 0 -50 0 0 50 0 50 -100 0 -100 0 0 -100 0 -100 200 0 200 0 0 50 0 50
50 0 50 0 0 -100 0 -100 150 0 150 0 0 -50 0 -50 -150 0 -150 0 0 50 0 50
-100 0 -100 0 0 -100 0 -100 200 0 200 0 0 -50 0 -50 50 0 50 0 0 -50 0 -50
-50 0 -50 0 0 -50 0 -50 50 0 50 0 0 -50 0 -50 -200 0 -200 0 0 100 0 100 -50
0 -50 0 0 -200 0 -200 50 0 50 0 0 -150 0 -150 -50 0 -50 0 0 50 0 50 -100 0
-100 0 0 -50 0 -50 50 0 50 0 0 -50 0 -50 -250 0 -250 0 0 50 0 50 -200 0
-200 0 0 50 0 50 -100 0 -100 0 0 50 0 50 -50 0 -50 0 0 -50 0 -50 -100 0
-100 0 0 50 0 50 50 0 50 0 0 100 0 100 -50 0 -50 0 0 100 0 100 -50 0 -50 0
0 50 0 50 -50 0 -50 0 0 150 0 150 -50 0 -50 0 0 50 0 50 100 0 100 0 0 -50 0
-50 50 0 50 0 0 50 0 50 100 0 100 0 0 50 0 50 -300 0 -300 0 0 50 0 50 500 0
500 0 0 50 0 50 300 0 300 0 0 50 0 50 100 0 100 0 0 -50z m400 0 l0 -50 -50
0 -50 0 0 50 0 50 50 0 50 0 0 -50z m-3900 -100 l0 -50 150 0 150 0 0 -100 0
-100 -50 0 -50 0 0 50 0 50 -100 0 -100 0 0 50 0 50 -50 0 -50 0 0 50 0 50 50
0 50 0 0 -50z m900 0 l0 -50 -50 0 -50 0 0 50 0 50 50 0 50 0 0 -50z m3500
-150 l0 -100 -50 0 -50 0 0 100 0 100 50 0 50 0 0 -100z m800 -150 l0 -50 -50
0 -50 0 0 -50 0 -50 -50 0 -50 0 0 -50 0 -50 50 0 50 0 0 -50 0 -50 -50 0 -50
0 0 -50 0 -50 -50 0 -50 0 0 50 0 50 50 0 50 0 0 50 0 50 -50 0 -50 0 0 50 0
50 -50 0 -50 0 0 50 0 50 100 0 100 0 0 50 0 50 100 0 100 0 0 -50z m-3700
-100 l0 -50 -50 0 -50 0 0 50 0 50 50 0 50 0 0 -50z m-800 -100 l0 -50 -50 0
-50 0 0 -50 0 -50 -50 0 -50 0 0 -50 0 -50 -50 0 -50 0 0 50 0 50 50 0 50 0 0
50 0 50 50 0 50 0 0 50 0 50 50 0 50 0 0 -50z m200 -100 l0 -50 100 0 100 0 0
-50 0 -50 -100 0 -100 0 0 50 0 50 -50 0 -50 0 0 50 0 50 50 0 50 0 0 -50z
m-700 -100 l0 -50 -50 0 -50 0 0 50 0 50 50 0 50 0 0 -50z m4200 0 l0 -50
-100 0 -100 0 0 50 0 50 100 0 100 0 0 -50z m-2400 -250 l0 -100 -50 0 -50 0
0 100 0 100 50 0 50 0 0 -100z m2600 50 l0 -50 -50 0 -50 0 0 -50 0 -50 -50 0
-50 0 0 50 0 50 -50 0 -50 0 0 50 0 50 150 0 150 0 0 -50z m-4600 -150 l0
-100 100 0 100 0 0 -50 0 -50 -100 0 -100 0 0 -50 0 -50 150 0 150 0 0 -50 0
-50 -250 0 -250 0 0 -50 0 -50 -150 0 -150 0 0 -50 0 -50 -100 0 -100 0 0 -50
0 -50 -50 0 -50 0 0 50 0 50 -50 0 -50 0 0 50 0 50 -50 0 -50 0 0 50 0 50 100
0 100 0 0 50 0 50 50 0 50 0 0 50 0 50 100 0 100 0 0 50 0 50 -50 0 -50 0 0
50 0 50 50 0 50 0 0 -50 0 -50 50 0 50 0 0 -50 0 -50 50 0 50 0 0 50 0 50 50
0 50 0 0 50 0 50 50 0 50 0 0 50 0 50 50 0 50 0 0 -100z m4200 50 l0 -50 -50
0 -50 0 0 -100 0 -100 -100 0 -100 0 0 50 0 50 -50 0 -50 0 0 50 0 50 50 0 50
0 0 -50 0 -50 50 0 50 0 0 50 0 50 50 0 50 0 0 50 0 50 50 0 50 0 0 -50z m700
-50 l0 -100 50 0 50 0 0 -50 0 -50 -50 0 -50 0 0 50 0 50 -100 0 -100 0 0 100
0 100 100 0 100 0 0 -100z m-5700 -150 l0 -50 -50 0 -50 0 0 50 0 50 50 0 50
0 0 -50z m2500 0 l0 -50 -50 0 -50 0 0 50 0 50 50 0 50 0 0 -50z m300 0 l0
-50 -100 0 -100 0 0 50 0 50 100 0 100 0 0 -50z m2700 -100 l0 -50 -50 0 -50
0 0 50 0 50 50 0 50 0 0 -50z m-2900 -100 l0 -50 150 0 150 0 0 -50 0 -50 50
0 50 0 0 50 0 50 150 0 150 0 0 -50 0 -50 -100 0 -100 0 0 -100 0 -100 50 0
50 0 0 -50 0 -50 -50 0 -50 0 0 50 0 50 -100 0 -100 0 0 50 0 50 -50 0 -50 0
0 50 0 50 -100 0 -100 0 0 -50 0 -50 50 0 50 0 0 -50 0 -50 -50 0 -50 0 0 50
0 50 -50 0 -50 0 0 -50 0 -50 -50 0 -50 0 0 50 0 50 -50 0 -50 0 0 -50 0 -50
-50 0 -50 0 0 50 0 50 50 0 50 0 0 50 0 50 -50 0 -50 0 0 50 0 50 150 0 150 0
0 50 0 50 50 0 50 0 0 -50z m2300 -100 l0 -50 -50 0 -50 0 0 50 0 50 50 0 50
0 0 -50z m-3700 -300 l0 -50 -50 0 -50 0 0 50 0 50 50 0 50 0 0 -50z m-1100
-100 l0 -50 50 0 50 0 0 -50 0 -50 50 0 50 0 0 -50 0 -50 -50 0 -50 0 0 -50 0
-50 150 0 150 0 0 50 0 50 100 0 100 0 0 50 0 50 -50 0 -50 0 0 50 0 50 -100
0 -100 0 0 50 0 50 150 0 150 0 0 -50 0 -50 50 0 50 0 0 50 0 50 50 0 50 0 0
-50 0 -50 -50 0 -50 0 0 -100 0 -100 100 0 100 0 0 50 0 50 50 0 50 0 0 -50 0
-50 -50 0 -50 0 0 -50 0 -50 -50 0 -50 0 0 -50 0 -50 50 0 50 0 0 -50 0 -50
50 0 50 0 0 -50 0 -50 -50 0 -50 0 0 50 0 50 -50 0 -50 0 0 50 0 50 -350 0
-350 0 0 -50 0 -50 50 0 50 0 0 -50 0 -50 100 0 100 0 0 -50 0 -50 -100 0
-100 0 0 -50 0 -50 100 0 100 0 0 -50 0 -50 -50 0 -50 0 0 -100 0 -100 100 0
100 0 0 -50 0 -50 -50 0 -50 0 0 -150 0 -150 -50 0 -50 0 0 -150 0 -150 50 0
50 0 0 -50 0 -50 50 0 50 0 0 200 0 200 50 0 50 0 0 50 0 50 -50 0 -50 0 0 50
0 50 50 0 50 0 0 50 0 50 50 0 50 0 0 100 0 100 100 0 100 0 0 -100 0 -100 50
0 50 0 0 -50 0 -50 50 0 50 0 0 -50 0 -50 -100 0 -100 0 0 -100 0 -100 -100 0
-100 0 0 -50 0 -50 -50 0 -50 0 0 -50 0 -50 50 0 50 0 0 -300 0 -300 -50 0
-50 0 0 -100 0 -100 50 0 50 0 0 50 0 50 50 0 50 0 0 -100 0 -100 50 0 50 0 0
-50 0 -50 50 0 50 0 0 -50 0 -50 -50 0 -50 0 0 -50 0 -50 -50 0 -50 0 0 -250
0 -250 50 0 50 0 0 -100 0 -100 50 0 50 0 0 -50 0 -50 50 0 50 0 0 -100 0
-100 50 0 50 0 0 50 0 50 50 0 50 0 0 -50 0 -50 50 0 50 0 0 100 0 100 100 0
100 0 0 100 0 100 -50 0 -50 0 0 -50 0 -50 -50 0 -50 0 0 50 0 50 50 0 50 0 0
50 0 50 -50 0 -50 0 0 50 0 50 50 0 50 0 0 -50 0 -50 50 0 50 0 0 -50 0 -50
50 0 50 0 0 100 0 100 -50 0 -50 0 0 50 0 50 50 0 50 0 0 50 0 50 50 0 50 0 0
50 0 50 50 0 50 0 0 50 0 50 50 0 50 0 0 -50 0 -50 50 0 50 0 0 -50 0 -50 50
0 50 0 0 50 0 50 100 0 100 0 0 150 0 150 50 0 50 0 0 50 0 50 50 0 50 0 0
200 0 200 -50 0 -50 0 0 100 0 100 50 0 50 0 0 50 0 50 -50 0 -50 0 0 50 0 50
50 0 50 0 0 50 0 50 100 0 100 0 0 -50 0 -50 50 0 50 0 0 -50 0 -50 -50 0 -50
0 0 -50 0 -50 50 0 50 0 0 -100 0 -100 50 0 50 0 0 -150 0 -150 50 0 50 0 0
-100 0 -100 50 0 50 0 0 -50 0 -50 50 0 50 0 0 -100 0 -100 100 0 100 0 0 -50
0 -50 200 0 200 0 0 100 0 100 100 0 100 0 0 50 0 50 150 0 150 0 0 50 0 50
50 0 50 0 0 50 0 50 50 0 50 0 0 50 0 50 50 0 50 0 0 150 0 150 50 0 50 0 0
100 0 100 50 0 50 0 0 -200 0 -200 50 0 50 0 0 -150 0 -150 100 0 100 0 0 50
0 50 50 0 50 0 0 -50 0 -50 50 0 50 0 0 150 0 150 -50 0 -50 0 0 150 0 150 50
0 50 0 0 -50 0 -50 50 0 50 0 0 -50 0 -50 50 0 50 0 0 -300 0 -300 -50 0 -50
0 0 -100 0 -100 -50 0 -50 0 0 -50 0 -50 -50 0 -50 0 0 -50 0 -50 -50 0 -50 0
0 -50 0 -50 -150 0 -150 0 0 50 0 50 -50 0 -50 0 0 -450 0 -450 -50 0 -50 0 0
-100 0 -100 -50 0 -50 0 0 -50 0 -50 -50 0 -50 0 0 50 0 50 50 0 50 0 0 100 0
100 50 0 50 0 0 100 0 100 -50 0 -50 0 0 -50 0 -50 -50 0 -50 0 0 -50 0 -50
-50 0 -50 0 0 50 0 50 -50 0 -50 0 0 -100 0 -100 -50 0 -50 0 0 -100 0 -100
-50 0 -50 0 0 -50 0 -50 -100 0 -100 0 0 -200 0 -200 -50 0 -50 0 0 -50 0 -50
-50 0 -50 0 0 -50 0 -50 50 0 50 0 0 -50 0 -50 -100 0 -100 0 0 -50 0 -50 -50
0 -50 0 0 -50 0 -50 -200 0 -200 0 0 -50 0 -50 -50 0 -50 0 0 50 0 50 -100 0
-100 0 0 100 0 100 -50 0 -50 0 0 -50 0 -50 -50 0 -50 0 0 -50 0 -50 -50 0
-50 0 0 100 0 100 -50 0 -50 0 0 -50 0 -50 -50 0 -50 0 0 -50 0 -50 -100 0
-100 0 0 50 0 50 -50 0 -50 0 0 50 0 50 50 0 50 0 0 50 0 50 50 0 50 0 0 -50
0 -50 -50 0 -50 0 0 -50 0 -50 100 0 100 0 0 150 0 150 50 0 50 0 0 50 0 50
300 0 300 0 0 150 0 150 -50 0 -50 0 0 50 0 50 -200 0 -200 0 0 50 0 50 -100
0 -100 0 0 50 0 50 250 0 250 0 0 50 0 50 450 0 450 0 0 50 0 50 -200 0 -200
0 0 50 0 50 -250 0 -250 0 0 -50 0 -50 -100 0 -100 0 0 50 0 50 -100 0 -100 0
0 50 0 50 -50 0 -50 0 0 50 0 50 50 0 50 0 0 -50 0 -50 50 0 50 0 0 100 0 100
50 0 50 0 0 50 0 50 50 0 50 0 0 -100 0 -100 50 0 50 0 0 -50 0 -50 100 0 100
0 0 50 0 50 -50 0 -50 0 0 100 0 100 -50 0 -50 0 0 100 0 100 200 0 200 0 0
100 0 100 -50 0 -50 0 0 50 0 50 -50 0 -50 0 0 -50 0 -50 -50 0 -50 0 0 50 0
50 -50 0 -50 0 0 50 0 50 -100 0 -100 0 0 50 0 50 -50 0 -50 0 0 -100 0 -100
-100 0 -100 0 0 50 0 50 -50 0 -50 0 0 -50 0 -50 -50 0 -50 0 0 -50 0 -50 -50
0 -50 0 0 -50 0 -50 -50 0 -50 0 0 -50 0 -50 -50 0 -50 0 0 -50 0 -50 -50 0
-50 0 0 -200 0 -200 -200 0 -200 0 0 -50 0 -50 -50 0 -50 0 0 -50 0 -50 50 0
50 0 0 -50 0 -50 -50 0 -50 0 0 -50 0 -50 50 0 50 0 0 -50 0 -50 50 0 50 0 0
-50 0 -50 -50 0 -50 0 0 -50 0 -50 -50 0 -50 0 0 50 0 50 50 0 50 0 0 50 0 50
-50 0 -50 0 0 50 0 50 -50 0 -50 0 0 50 0 50 -50 0 -50 0 0 50 0 50 50 0 50 0
0 50 0 50 -50 0 -50 0 0 50 0 50 50 0 50 0 0 50 0 50 -100 0 -100 0 0 -150 0
-150 -50 0 -50 0 0 -50 0 -50 -50 0 -50 0 0 -50 0 -50 50 0 50 0 0 -50 0 -50
-50 0 -50 0 0 -50 0 -50 50 0 50 0 0 -100 0 -100 50 0 50 0 0 -50 0 -50 -50 0
-50 0 0 50 0 50 -50 0 -50 0 0 100 0 100 -50 0 -50 0 0 250 0 250 -50 0 -50 0
0 350 0 350 -100 0 -100 0 0 50 0 50 50 0 50 0 0 150 0 150 -50 0 -50 0 0 50
0 50 -50 0 -50 0 0 200 0 200 -50 0 -50 0 0 150 0 150 -50 0 -50 0 0 -50 0
-50 -50 0 -50 0 0 50 0 50 50 0 50 0 0 50 0 50 -50 0 -50 0 0 50 0 50 -100 0
-100 0 0 100 0 100 50 0 50 0 0 200 0 200 -100 0 -100 0 0 50 0 50 50 0 50 0
0 150 0 150 -50 0 -50 0 0 100 0 100 -50 0 -50 0 0 200 0 200 50 0 50 0 0 200
0 200 50 0 50 0 0 50 0 50 -50 0 -50 0 0 50 0 50 200 0 200 0 0 -50z m3900 0
l0 -50 50 0 50 0 0 -50 0 -50 50 0 50 0 0 50 0 50 50 0 50 0 0 -50 0 -50 50 0
50 0 0 100 0 100 250 0 250 0 0 -50 0 -50 50 0 50 0 0 50 0 50 50 0 50 0 0
-50 0 -50 100 0 100 0 0 -50 0 -50 50 0 50 0 0 50 0 50 100 0 100 0 0 -50 0
-50 -50 0 -50 0 0 -50 0 -50 -100 0 -100 0 0 -50 0 -50 -100 0 -100 0 0 50 0
50 -300 0 -300 0 0 -100 0 -100 50 0 50 0 0 -50 0 -50 50 0 50 0 0 50 0 50 50
0 50 0 0 50 0 50 50 0 50 0 0 -100 0 -100 50 0 50 0 0 -50 0 -50 50 0 50 0 0
50 0 50 50 0 50 0 0 -50 0 -50 -50 0 -50 0 0 -50 0 -50 -50 0 -50 0 0 -50 0
-50 -150 0 -150 0 0 -250 0 -250 50 0 50 0 0 -150 0 -150 -50 0 -50 0 0 50 0
50 -450 0 -450 0 0 50 0 50 -200 0 -200 0 0 -50 0 -50 -600 0 -600 0 0 50 0
50 -150 0 -150 0 0 50 0 50 -50 0 -50 0 0 50 0 50 -50 0 -50 0 0 -50 0 -50
-50 0 -50 0 0 -50 0 -50 -50 0 -50 0 0 50 0 50 -50 0 -50 0 0 -50 0 -50 -50 0
-50 0 0 50 0 50 50 0 50 0 0 50 0 50 50 0 50 0 0 50 0 50 50 0 50 0 0 -50 0
-50 50 0 50 0 0 50 0 50 50 0 50 0 0 150 0 150 150 0 150 0 0 50 0 50 100 0
100 0 0 50 0 50 150 0 150 0 0 50 0 50 100 0 100 0 0 50 0 50 100 0 100 0 0
50 0 50 50 0 50 0 0 50 0 50 50 0 50 0 0 50 0 50 100 0 100 0 0 50 0 50 250 0
250 0 0 50 0 50 50 0 50 0 0 -50z m1700 -500 l0 -50 -50 0 -50 0 0 50 0 50 50
0 50 0 0 -50z m-4300 -200 l0 -50 -50 0 -50 0 0 50 0 50 50 0 50 0 0 -50z
m-700 -100 l0 -50 -50 0 -50 0 0 50 0 50 50 0 50 0 0 -50z m4600 -100 l0 -50
-50 0 -50 0 0 50 0 50 50 0 50 0 0 -50z m200 0 l0 -50 -50 0 -50 0 0 50 0 50
50 0 50 0 0 -50z m-600 -900 l0 -50 -50 0 -50 0 0 50 0 50 50 0 50 0 0 -50z
m800 -100 l0 -50 -100 0 -100 0 0 -50 0 -50 -50 0 -50 0 0 -50 0 -50 -50 0
-50 0 0 50 0 50 50 0 50 0 0 50 0 50 50 0 50 0 0 50 0 50 100 0 100 0 0 -50z
m-2400 -400 l0 -50 -50 0 -50 0 0 50 0 50 50 0 50 0 0 -50z m1000 0 l0 -50 50
0 50 0 0 50 0 50 50 0 50 0 0 -50 0 -50 -50 0 -50 0 0 -50 0 -50 -100 0 -100
0 0 50 0 50 -50 0 -50 0 0 -50 0 -50 -50 0 -50 0 0 100 0 100 150 0 150 0 0
-50z m-900 -300 l0 -50 50 0 50 0 0 -50 0 -50 -50 0 -50 0 0 50 0 50 -50 0
-50 0 0 50 0 50 50 0 50 0 0 -50z m900 0 l0 -50 -50 0 -50 0 0 50 0 50 50 0
50 0 0 -50z m1000 0 l0 -50 -50 0 -50 0 0 50 0 50 50 0 50 0 0 -50z m-5300
-350 l0 -300 100 0 100 0 0 50 0 50 50 0 50 0 0 -250 0 -250 -50 0 -50 0 0 50
0 50 -50 0 -50 0 0 100 0 100 -50 0 -50 0 0 50 0 50 -50 0 -50 0 0 250 0 250
-50 0 -50 0 0 50 0 50 100 0 100 0 0 -300z m3600 -50 l0 -50 -50 0 -50 0 0 50
0 50 50 0 50 0 0 -50z m-3100 -700 l0 -50 -50 0 -50 0 0 50 0 50 50 0 50 0 0
-50z m1500 -500 l0 -50 -50 0 -50 0 0 50 0 50 50 0 50 0 0 -50z m2500 -400 l0
-50 -50 0 -50 0 0 50 0 50 50 0 50 0 0 -50z m-3000 -500 l0 -50 50 0 50 0 0
-50 0 -50 -50 0 -50 0 0 50 0 50 -50 0 -50 0 0 50 0 50 50 0 50 0 0 -50z m400
-200 l0 -50 -50 0 -50 0 0 50 0 50 50 0 50 0 0 -50z m-200 -100 l0 -50 50 0
50 0 0 -50 0 -50 -50 0 -50 0 0 50 0 50 -50 0 -50 0 0 50 0 50 50 0 50 0 0
-50z m3600 -1300 l0 -50 -50 0 -50 0 0 50 0 50 50 0 50 0 0 -50z m200 -200 l0
-50 -50 0 -50 0 0 50 0 50 50 0 50 0 0 -50z m500 -300 l0 -50 -50 0 -50 0 0
50 0 50 50 0 50 0 0 -50z m300 -200 l0 -50 100 0 100 0 0 -50 0 -50 100 0 100
0 0 -50 0 -50 100 0 100 0 0 -50 0 -50 -100 0 -100 0 0 50 0 50 -100 0 -100 0
0 50 0 50 -100 0 -100 0 0 50 0 50 -50 0 -50 0 0 50 0 50 50 0 50 0 0 -50z
m-3600 -100 l0 -50 -100 0 -100 0 0 50 0 50 100 0 100 0 0 -50z m700 -300 l0
-50 -50 0 -50 0 0 50 0 50 50 0 50 0 0 -50z m3800 0 l0 -50 100 0 100 0 0 -50
0 -50 -100 0 -100 0 0 50 0 50 -100 0 -100 0 0 50 0 50 100 0 100 0 0 -50z"/>
<path d="M8600 12100 l0 -100 50 0 50 0 0 100 0 100 -50 0 -50 0 0 -100z"/>
<path d="M10200 11450 l0 -50 50 0 50 0 0 50 0 50 -50 0 -50 0 0 -50z"/>
<path d="M5800 12050 l0 -50 50 0 50 0 0 50 0 50 -50 0 -50 0 0 -50z"/>
<path d="M4400 11600 l0 -100 -100 0 -100 0 0 -50 0 -50 50 0 50 0 0 -50 0
-50 50 0 50 0 0 100 0 100 50 0 50 0 0 100 0 100 -50 0 -50 0 0 -100z"/>
<path d="M5100 10850 l0 -50 50 0 50 0 0 50 0 50 -50 0 -50 0 0 -50z"/>
<path d="M4600 9750 l0 -50 50 0 50 0 0 50 0 50 -50 0 -50 0 0 -50z"/>
<path d="M4200 9500 l0 -100 50 0 50 0 0 -100 0 -100 50 0 50 0 0 150 0 150
-50 0 -50 0 0 50 0 50 -50 0 -50 0 0 -100z"/>
<path d="M4500 9550 l0 -50 50 0 50 0 0 50 0 50 -50 0 -50 0 0 -50z"/>
<path d="M7700 9750 l0 -50 100 0 100 0 0 50 0 50 -100 0 -100 0 0 -50z"/>
<path d="M8000 9750 l0 -50 100 0 100 0 0 -50 0 -50 50 0 50 0 0 -50 0 -50 50
0 50 0 0 50 0 50 100 0 100 0 0 50 0 50 -100 0 -100 0 0 50 0 50 -200 0 -200
0 0 -50z"/>
<path d="M8200 9350 l0 -50 -50 0 -50 0 0 -100 0 -100 50 0 50 0 0 -50 0 -50
100 0 100 0 0 -50 0 -50 50 0 50 0 0 50 0 50 100 0 100 0 0 150 0 150 -50 0
-50 0 0 -100 0 -100 -100 0 -100 0 0 50 0 50 -100 0 -100 0 0 50 0 50 50 0 50
0 0 50 0 50 -50 0 -50 0 0 -50z"/>
<path d="M9100 9350 l0 -50 100 0 100 0 0 50 0 50 -100 0 -100 0 0 -50z"/>
<path d="M7400 9250 l0 -50 100 0 100 0 0 50 0 50 -100 0 -100 0 0 -50z"/>
<path d="M4900 8550 l0 -50 100 0 100 0 0 50 0 50 -100 0 -100 0 0 -50z"/>
<path d="M6900 8350 l0 -50 50 0 50 0 0 50 0 50 -50 0 -50 0 0 -50z"/>
<path d="M4600 6350 l0 -50 50 0 50 0 0 50 0 50 -50 0 -50 0 0 -50z"/>
<path d="M4700 5900 l0 -200 50 0 50 0 0 200 0 200 -50 0 -50 0 0 -200z"/>
<path d="M5100 5950 l0 -150 50 0 50 0 0 150 0 150 -50 0 -50 0 0 -150z"/>
<path d="M4900 5850 l0 -50 50 0 50 0 0 50 0 50 -50 0 -50 0 0 -50z"/>
<path d="M5400 5150 l0 -50 50 0 50 0 0 50 0 50 -50 0 -50 0 0 -50z"/>
<path d="M9500 5100 l0 -100 -50 0 -50 0 0 -50 0 -50 50 0 50 0 0 50 0 50 50
0 50 0 0 100 0 100 -50 0 -50 0 0 -100z"/>
<path d="M6500 4850 l0 -50 -50 0 -50 0 0 -50 0 -50 -50 0 -50 0 0 -50 0 -50
50 0 50 0 0 50 0 50 50 0 50 0 0 50 0 50 50 0 50 0 0 50 0 50 -50 0 -50 0 0
-50z"/>
<path d="M9300 4750 l0 -50 50 0 50 0 0 50 0 50 -50 0 -50 0 0 -50z"/>
<path d="M9700 4750 l0 -50 50 0 50 0 0 50 0 50 -50 0 -50 0 0 -50z"/>
<path d="M9500 4650 l0 -50 50 0 50 0 0 50 0 50 -50 0 -50 0 0 -50z"/>
<path d="M9000 4150 l0 -50 50 0 50 0 0 50 0 50 -50 0 -50 0 0 -50z"/>
<path d="M5800 3950 l0 -50 -50 0 -50 0 0 -50 0 -50 50 0 50 0 0 50 0 50 50 0
50 0 0 50 0 50 -50 0 -50 0 0 -50z"/>
<path d="M8300 3800 l0 -100 50 0 50 0 0 -50 0 -50 150 0 150 0 0 100 0 100
-150 0 -150 0 0 50 0 50 -50 0 -50 0 0 -100z"/>
<path d="M5300 3750 l0 -50 50 0 50 0 0 50 0 50 -50 0 -50 0 0 -50z"/>
<path d="M5700 3650 l0 -50 50 0 50 0 0 50 0 50 -50 0 -50 0 0 -50z"/>
<path d="M9100 7350 l0 -50 50 0 50 0 0 50 0 50 -50 0 -50 0 0 -50z"/>
<path d="M9300 7350 l0 -50 100 0 100 0 0 50 0 50 -100 0 -100 0 0 -50z"/>
<path d="M6000 6750 l0 -50 50 0 50 0 0 50 0 50 -50 0 -50 0 0 -50z"/>
<path d="M9100 1850 l0 -50 50 0 50 0 0 50 0 50 -50 0 -50 0 0 -50z"/>
<path d="M9000 1650 l0 -50 50 0 50 0 0 50 0 50 -50 0 -50 0 0 -50z"/>
<path d="M8300 1050 l0 -50 -50 0 -50 0 0 -50 0 -50 50 0 50 0 0 50 0 50 50 0
50 0 0 50 0 50 -50 0 -50 0 0 -50z"/>
<path d="M8000 850 l0 -50 -50 0 -50 0 0 -50 0 -50 50 0 50 0 0 50 0 50 50 0
50 0 0 50 0 50 -50 0 -50 0 0 -50z"/>
<path d="M4000 350 l0 -50 -50 0 -50 0 0 -50 0 -50 -200 0 -200 0 0 -50 0 -50
-100 0 -100 0 0 -50 0 -50 550 0 550 0 0 50 0 50 -50 0 -50 0 0 100 0 100 -50
0 -50 0 0 50 0 50 -100 0 -100 0 0 -50z"/>
</g>
</svg>
